<?xml version="1.0" encoding="UTF-8" standalone="no"?>
<svg
   xmlns:dc="http://purl.org/dc/elements/1.1/"
   xmlns:cc="http://creativecommons.org/ns#"
   xmlns:rdf="http://www.w3.org/1999/02/22-rdf-syntax-ns#"
   xmlns:svg="http://www.w3.org/2000/svg"
   xmlns="http://www.w3.org/2000/svg"
   viewBox="0 0 2848.0266 1610.08"
   height="1610.08"
   width="2848.0266"
   xml:space="preserve"
   id="svg2"
   version="1.1"><metadata
     id="metadata8"><rdf:RDF><cc:Work
         rdf:about=""><dc:format>image/svg+xml</dc:format><dc:type
           rdf:resource="http://purl.org/dc/dcmitype/StillImage" /></cc:Work></rdf:RDF></metadata><defs
     id="defs6" /><g
     transform="matrix(1.3333333,0,0,-1.3333333,0,1610.08)"
     id="g10"><g
       transform="scale(0.1)"
       id="g12"><g
         transform="scale(1.31043)"
         id="g14"><path
           id="path16"
           style="fill:#e41e2f;fill-opacity:1;fill-rule:evenodd;stroke:none"
           d="m 10610.6,0 c 40.8,0 79.9,16.1922 108.7,45.0085 28.8,28.8223 45,67.9075 45,108.6655 0,0.069 0,0.137 0,0.206 0,40.751 16.2,79.846 45,108.659 28.8,28.822 67.9,45.009 108.6,45.009 0.1,0 0.2,0 0.3,0 40.7,0 79.8,-16.187 108.6,-45.009 28.8,-28.813 45,-67.908 45,-108.659 0,-0.069 0,-0.137 0,-0.206 0,-40.758 16.2,-79.8432 45,-108.6655 C 11145.7,16.1922 11184.7,0 11225.5,0 c 363,0 1285.3,0 1847.6,0 121.8,0 238.5,48.3739 324.7,134.483 86.1,86.109 134.4,202.894 134.4,324.664 0,581.093 0,1576.113 0,2157.213 0,121.77 -48.3,238.56 -134.4,324.67 -86.2,86.1 -202.9,134.48 -324.7,134.48 -635,0 -1749,0 -2155.2,0 -40.7,0 -79.8,16.19 -108.6,45.01 -28.8,28.81 -45,67.9 -45,108.66 0,0.07 0,0.13 0,0.2 0,40.76 16.2,79.85 45,108.67 28.8,28.81 67.9,45.01 108.6,45.01 406.2,0 1520.2,0 2155.2,0 121.8,0 238.5,48.37 324.7,134.48 86.1,86.11 134.4,202.9 134.4,324.67 0,282.84 0,644.17 0,927 0,253.59 -205.5,459.15 -459.1,459.15 -990.7,0 -3319.36,0 -4310.08,0 -121.77,0 -238.56,-48.37 -324.67,-134.48 -86.1,-86.11 -134.48,-202.9 -134.48,-324.67 0,-581.09 0,-1576.11 0,-2157.2 0,-121.78 48.38,-238.57 134.49,-324.68 86.1,-86.1 202.89,-134.48 324.66,-134.47 635.03,0 1748.98,0 2155.18,0 40.7,0 79.8,-16.19 108.6,-45.02 28.8,-28.81 45,-67.9 45,-108.66 0,-0.06 0,-0.13 0,-0.2 0,-40.76 -16.2,-79.85 -45,-108.67 -28.8,-28.81 -67.9,-45.01 -108.6,-45.01 -406.2,0 -1520.15,0 -2155.18,0 -121.77,0 -238.56,-48.37 -324.66,-134.48 -86.11,-86.11 -134.49,-202.89 -134.49,-324.66 0,-282.84 0,-644.174 0,-927.013 0,-121.77 48.38,-238.555 134.49,-324.664 C 8524.46,48.3739 8641.25,0 8763.02,0 9325.28,0 10247.6,0 10610.6,0 Z M 2460.41,4769.21 c 0,253.59 -205.57,459.15 -459.16,459.15 -440.4,0 -1101.697,0 -1542.103,0 C 205.565,5228.36 0,5022.8 0,4769.21 0,3778.49 0,1449.87 0,459.147 0,205.565 205.565,0 459.147,0 899.553,0 1560.85,0 2001.25,0 c 253.59,0 459.16,205.565 459.16,459.147 0,990.723 0,3319.343 0,4310.063 z m 13839.79,0 c 0,253.59 -205.6,459.15 -459.2,459.15 -440.4,0 -1101.7,0 -1542.1,0 -253.5,0 -459.1,-205.56 -459.1,-459.15 0,-990.72 0,-3319.34 0,-4310.063 C 13839.8,205.565 14045.4,0 14298.9,0 c 440.4,0 1101.7,0 1542.1,0 253.6,0 459.2,205.565 459.2,459.147 0,990.723 0,3319.343 0,4310.063 z M 4769.21,0 c 253.59,0 459.15,205.565 459.15,459.147 0,485.122 0,1222.913 0,1540.033 0,40.76 16.2,79.85 45.01,108.66 28.82,28.83 67.91,45.02 108.67,45.02 0.07,0 0.14,0 0.2,0 40.76,0 79.85,-16.19 108.66,-45.02 28.83,-28.81 45.01,-67.9 45.01,-108.66 0,-317.12 0,-1054.911 0,-1540.033 C 5535.91,205.565 5741.48,0 5995.06,0 c 440.41,0 1101.71,0 1542.11,0 253.58,0 459.14,205.565 459.14,459.147 0,990.723 0,3319.343 0,4310.063 0,253.59 -205.56,459.15 -459.14,459.15 -990.72,0 -3319.35,0 -4310.06,0 -253.59,0 -459.15,-205.56 -459.15,-459.15 0,-990.72 0,-3319.34 0,-4310.063 C 2767.96,205.565 2973.53,0 3227.11,0 c 440.4,0 1101.7,0 1542.1,0 z m 612.93,3450.21 c 121.93,0 220.93,-98.99 220.93,-220.93 0,-121.93 -99,-220.92 -220.93,-220.92 -121.93,0 -220.93,98.99 -220.93,220.92 0,121.94 99,220.93 220.93,220.93" /></g><path
         id="path18"
         style="fill:#000000;fill-opacity:1;fill-rule:nonzero;stroke:none"
         d="m 278.488,10615.5 v 274.6 H 531.84 c 48.988,0 91.219,9.7 126.672,29 35.457,19.4 62.859,46.8 82.199,82.2 19.328,35.5 29,76.4 29,122.8 0,49 -9.672,91.3 -29,126.7 -19.34,35.5 -46.742,62.5 -82.199,81.2 -35.453,18.7 -77.684,28.1 -126.672,28.1 H 278.488 v 274.6 h 237.883 c 119.899,0 222.719,-20 308.457,-59.9 85.742,-40 151.5,-96.7 197.272,-170.2 45.77,-73.5 68.65,-161.8 68.65,-265 v -30.9 c 0,-100.6 -22.88,-187.9 -68.65,-262.1 -45.772,-74.1 -111.53,-131.2 -197.272,-171.1 -85.738,-40 -188.558,-60 -308.457,-60 z M 0,10211.3 v 1423.4 H 317.172 V 10211.3 H 0" /><path
         id="path20"
         style="fill:#000000;fill-opacity:1;fill-rule:nonzero;stroke:none"
         d="m 1289.95,10211.3 v 1423.4 h 317.17 v -1423.4 z m 856.74,0 -413.87,607.3 h 348.12 l 433.2,-607.3 z m -624.67,452.6 v 249.4 h 348.12 c 46.41,0 86.7,9.4 120.87,28.1 34.16,18.7 60.6,45.1 79.29,79.3 18.7,34.1 28.04,73.8 28.04,118.9 0,45.1 -9.34,84.8 -28.04,119 -18.69,34.1 -45.13,60.5 -79.29,79.2 -34.17,18.7 -74.46,28.1 -120.87,28.1 h -348.12 v 268.8 h 322.97 c 117.33,0 219.19,-17.7 305.57,-53.2 86.38,-35.4 152.78,-88 199.2,-157.6 46.41,-69.6 69.62,-157.3 69.62,-263 v -31 c 0,-104.4 -23.53,-191.1 -70.59,-260.1 -47.06,-69 -113.46,-120.5 -199.2,-154.7 -85.74,-34.2 -187.27,-51.2 -304.6,-51.2 h -322.97" /><path
         id="path22"
         style="fill:#000000;fill-opacity:1;fill-rule:nonzero;stroke:none"
         d="m 2705.6,10211.3 v 1411.8 h 317.17 V 10211.3 H 2705.6" /><path
         id="path24"
         style="fill:#000000;fill-opacity:1;fill-rule:nonzero;stroke:none"
         d="m 3343.81,10211.3 v 1411.8 h 437.07 l 322.98,-792.9 h 36.74 l 319.1,792.9 h 444.81 v -1411.8 h -313.3 v 1204.9 l 44.48,-3.9 -373.25,-914.8 h -301.7 l -375.19,914.8 48.35,3.9 v -1204.9 h -290.09" /><path
         id="path26"
         style="fill:#000000;fill-opacity:1;fill-rule:nonzero;stroke:none"
         d="m 5088.24,10211.3 466.08,1411.8 h 512.5 l 483.49,-1411.8 h -328.77 l -390.66,1193.3 100.56,-40.7 h -249.48 l 104.44,40.7 -380.99,-1193.3 z m 353.91,350.1 96.7,263 h 553.11 l 98.63,-263 z m 369.39,1148.7 c -79.94,0 -146.98,15.2 -201.13,45.5 -54.15,30.3 -95.41,72.8 -123.78,127.6 -28.36,54.8 -43.83,118.9 -46.41,192.4 h 222.4 c 2.58,-48.9 15.15,-87.6 37.72,-116 22.56,-28.4 59.63,-42.5 111.2,-42.5 52.86,0 91.86,14.1 117,42.5 25.14,28.4 38.36,67.1 39.65,116 h 212.73 c -2.57,-73.5 -17.72,-137.6 -45.44,-192.4 -27.72,-54.8 -68.34,-97.3 -121.84,-127.6 -53.51,-30.3 -120.88,-45.5 -202.1,-45.5" /><path
         id="path28"
         style="fill:#000000;fill-opacity:1;fill-rule:nonzero;stroke:none"
         d="m 6734.04,10211.3 v 1423.4 h 317.16 v -1423.4 z m 856.74,0 -413.87,607.3 h 348.11 l 433.21,-607.3 z m -624.67,452.6 v 249.4 h 348.11 c 46.42,0 86.71,9.4 120.87,28.1 34.17,18.7 60.6,45.1 79.3,79.3 18.69,34.1 28.04,73.8 28.04,118.9 0,45.1 -9.35,84.8 -28.04,119 -18.7,34.1 -45.13,60.5 -79.3,79.2 -34.16,18.7 -74.45,28.1 -120.87,28.1 h -348.11 v 268.8 h 322.97 c 117.33,0 219.18,-17.7 305.57,-53.2 86.38,-35.4 152.78,-88 199.19,-157.6 46.42,-69.6 69.63,-157.3 69.63,-263 v -31 c 0,-104.4 -23.53,-191.1 -70.59,-260.1 -47.06,-69 -113.46,-120.5 -199.2,-154.7 -85.74,-34.2 -187.27,-51.2 -304.6,-51.2 h -322.97" /><path
         id="path30"
         style="fill:#000000;fill-opacity:1;fill-rule:nonzero;stroke:none"
         d="m 8149.69,10211.3 v 1411.8 h 317.17 v -1411.8 h -317.17" /><path
         id="path32"
         style="fill:#000000;fill-opacity:1;fill-rule:nonzero;stroke:none"
         d="m 8654.45,10211.3 466.09,1411.8 h 512.5 l 483.46,-1411.8 h -328.75 l -390.66,1193.3 100.57,-40.7 h -249.48 l 104.43,40.7 -380.99,-1193.3 z m 353.92,350.1 96.7,263 h 553.11 l 98.63,-263 h -748.44" /><path
         id="path34"
         style="fill:#000000;fill-opacity:1;fill-rule:nonzero;stroke:none"
         d="m 0,7888.15 v 1411.78 h 437.07 l 322.969,-792.92 h 36.75 l 319.101,792.92 H 1560.7 V 7888.15 H 1247.4 V 9093 l 44.48,-3.87 -373.251,-914.76 H 616.93 L 241.738,9089.13 290.09,9093 V 7888.15 H 0" /><path
         id="path36"
         style="fill:#000000;fill-opacity:1;fill-rule:nonzero;stroke:none"
         d="m 2469.66,7851.4 c -132.8,0 -245.29,24.82 -337.47,74.46 -92.19,49.64 -162.13,120.23 -209.84,211.77 -47.7,91.54 -71.55,199.84 -71.55,324.9 v 837.4 h 317.16 v -849 c 0,-61.89 11.93,-115.72 35.78,-161.49 23.86,-45.77 58.02,-80.9 102.5,-105.4 44.48,-24.5 98.96,-36.74 163.42,-36.74 65.76,0 120.87,12.24 165.36,36.74 44.48,24.5 78.32,59.31 101.53,104.43 23.21,45.13 34.81,99.28 34.81,162.46 v 849 h 317.17 v -837.4 c 0,-125.06 -23.85,-233.36 -71.56,-324.9 -47.7,-91.54 -117.32,-162.13 -208.87,-211.77 -91.54,-49.64 -204.35,-74.46 -338.44,-74.46" /><path
         id="path38"
         style="fill:#000000;fill-opacity:1;fill-rule:nonzero;stroke:none"
         d="m 3378.62,7888.15 v 1411.78 h 520.24 l 531.83,-1154.57 h 65.76 l -38.68,-34.81 V 9299.93 H 4755.6 V 7888.15 h -524.1 l -531.84,1154.57 h -65.76 l 38.68,34.81 V 7888.15 h -293.96" /><path
         id="path40"
         style="fill:#000000;fill-opacity:1;fill-rule:nonzero;stroke:none"
         d="M 5076.64,7888.15 V 9299.93 H 5393.8 V 7888.15 h -317.16" /><path
         id="path42"
         style="fill:#000000;fill-opacity:1;fill-rule:nonzero;stroke:none"
         d="m 6362.72,7851.4 c -127.65,0 -237.24,22.24 -328.78,66.72 -91.54,44.48 -166.32,103.15 -224.34,175.99 -58.01,72.85 -100.88,151.49 -128.6,235.94 -27.72,84.45 -41.58,166.65 -41.58,246.58 v 42.55 c 0,87.67 14.18,174.38 42.54,260.12 28.37,85.74 71.88,163.42 130.55,233.04 58.66,69.62 132.79,125.38 222.4,167.29 89.61,41.9 195.65,62.85 318.14,62.85 127.64,0 240.45,-23.85 338.44,-71.56 97.99,-47.7 176.31,-113.78 234.97,-198.23 58.67,-84.45 93.16,-183.4 103.47,-296.86 h -319.1 c -9.03,56.73 -29.66,105.08 -61.89,145.05 -32.23,39.97 -73.81,70.91 -124.74,92.83 -50.93,21.92 -107.98,32.88 -171.15,32.88 -63.18,0 -119.26,-10.96 -168.26,-32.88 -48.99,-21.92 -89.93,-52.86 -122.8,-92.83 -32.88,-39.97 -58.02,-87.35 -75.43,-142.15 -17.4,-54.79 -26.11,-115.71 -26.11,-182.76 0,-65.75 8.71,-126.03 26.11,-180.82 17.41,-54.8 43.19,-102.5 77.36,-143.11 34.17,-40.62 76.39,-71.56 126.67,-92.83 50.29,-21.28 107.66,-31.91 172.13,-31.91 97.98,0 180.82,23.85 248.51,71.55 67.69,47.71 108.62,113.46 122.81,197.27 h 317.16 c -11.6,-103.15 -46.09,-197.59 -103.46,-283.33 -57.38,-85.74 -135.38,-154.07 -234.01,-205 -98.63,-50.93 -215.64,-76.39 -351.01,-76.39" /><path
         id="path44"
         style="fill:#000000;fill-opacity:1;fill-rule:nonzero;stroke:none"
         d="m 7265.87,7888.15 v 1411.78 h 317.17 V 7888.15 h -317.17" /><path
         id="path46"
         style="fill:#000000;fill-opacity:1;fill-rule:nonzero;stroke:none"
         d="m 8182.57,8292.34 v 274.62 h 253.35 c 48.99,0 91.22,9.67 126.67,29.01 35.46,19.34 62.85,46.74 82.19,82.2 19.34,35.45 29.01,76.39 29.01,122.8 0,49 -9.67,91.22 -29.01,126.68 -19.34,35.45 -46.73,62.53 -82.19,81.22 -35.45,18.7 -77.68,28.05 -126.67,28.05 h -253.35 v 274.62 h 237.88 c 119.9,0 222.72,-19.99 308.46,-59.96 85.74,-39.96 151.49,-96.69 197.26,-170.18 45.78,-73.49 68.66,-161.81 68.66,-264.96 v -30.94 c 0,-100.56 -22.88,-187.92 -68.66,-262.05 -45.77,-74.14 -111.52,-131.19 -197.26,-171.16 -85.74,-39.96 -188.56,-59.95 -308.46,-59.95 z m -278.49,-404.19 v 1423.39 h 317.17 V 7888.15 h -317.17" /><path
         id="path48"
         style="fill:#000000;fill-opacity:1;fill-rule:nonzero;stroke:none"
         d="m 9197.9,7888.15 v 1411.78 h 317.16 V 7888.15 H 9197.9" /><path
         id="path50"
         style="fill:#000000;fill-opacity:1;fill-rule:nonzero;stroke:none"
         d="m 10427.9,7851.4 c -132.8,0 -245.3,24.82 -337.5,74.46 -92.17,49.64 -162.11,120.23 -209.82,211.77 -47.7,91.54 -71.55,199.84 -71.55,324.9 v 837.4 h 317.17 v -849 c 0,-61.89 11.9,-115.72 35.8,-161.49 23.8,-45.77 58,-80.9 102.5,-105.4 44.4,-24.5 98.9,-36.74 163.4,-36.74 65.8,0 120.9,12.24 165.4,36.74 44.4,24.5 78.3,59.31 101.5,104.43 23.2,45.13 34.8,99.28 34.8,162.46 v 849 h 317.2 v -837.4 c 0,-125.06 -23.9,-233.36 -71.6,-324.9 -47.7,-91.54 -117.3,-162.13 -208.9,-211.77 -91.5,-49.64 -204.3,-74.46 -338.4,-74.46" /><path
         id="path52"
         style="fill:#000000;fill-opacity:1;fill-rule:nonzero;stroke:none"
         d="M 11336.9,7888.15 V 9299.93 H 11654 V 7888.15 Z m 278.4,0 v 278.49 h 591.8 v -278.49 h -591.8" /><path
         id="path54"
         style="fill:#000000;fill-opacity:1;fill-rule:nonzero;stroke:none"
         d="m 12959.4,7851.4 c -132.8,0 -245.2,24.82 -337.4,74.46 -92.2,49.64 -162.2,120.23 -209.9,211.77 -47.7,91.54 -71.5,199.84 -71.5,324.9 v 837.4 h 317.1 v -849 c 0,-61.89 12,-115.72 35.8,-161.49 23.9,-45.77 58,-80.9 102.5,-105.4 44.5,-24.5 99,-36.74 163.4,-36.74 65.8,0 120.9,12.24 165.4,36.74 44.5,24.5 78.3,59.31 101.5,104.43 23.2,45.13 34.8,99.28 34.8,162.46 v 849 h 317.2 v -837.4 c 0,-125.06 -23.9,-233.36 -71.5,-324.9 -47.7,-91.54 -117.4,-162.13 -208.9,-211.77 -91.6,-49.64 -204.4,-74.46 -338.5,-74.46" /><path
         id="path56"
         style="fill:#000000;fill-opacity:1;fill-rule:nonzero;stroke:none"
         d="m 13872.3,7888.15 v 1411.78 h 317.1 V 7888.15 h -317.1" /></g></g></svg>