<?xml version="1.0" standalone="no"?>
<!DOCTYPE svg PUBLIC "-//W3C//DTD SVG 1.1//EN" "http://www.w3.org/Graphics/SVG/1.1/DTD/svg11.dtd">
<svg xmlns="http://www.w3.org/2000/svg">
<metadata>Generated by Fontastic.me</metadata>
<defs>
<font id="hackathon-iasi" horiz-adv-x="512">
<font-face font-family="hackathon-iasi" units-per-em="512" ascent="480" descent="-32"/>
<missing-glyph horiz-adv-x="512" />

<glyph glyph-name="lineicons" unicode="&#57344;" d="M256 51c-6 0-13 3-18 7-18 16-36 31-52 44-47 40-88 74-116 108-32 38-46 73-46 112 0 38 13 73 37 99 24 25 57 40 93 40 26 0 51-9 72-25 9-6 16-14 24-23 3-4 8-4 12 0 7 9 15 16 23 23 21 17 46 25 73 25 36 0 68-15 92-40 24-26 37-61 37-99 0-39-14-74-46-112-28-33-69-68-115-107-16-13-35-29-53-45-4-4-11-7-17-7z"/>
<glyph glyph-name="lineicons-1" unicode="&#57345;" d="M498 410c-5 6-14 6-20 0l-292-283c-2-2-5-2-8 0l-144 141c-6 6-15 6-20 0-6-6-6-14 0-20l144-141c7-6 16-9 24-9 8 0 16 3 23 9l292 283c6 6 6 15 1 20z"/>
<glyph glyph-name="lineicons-2" unicode="&#57346;" d="M256 10c-136 0-246 110-246 246 0 136 110 246 246 246 136 0 246-110 246-246 0-136-110-246-246-246z m0 464c-120 0-218-98-218-218 0-120 98-218 218-218 120 0 218 98 218 218 0 120-98 218-218 218z m-27-274c-6 0-11 2-15 6l-53 51c-6 5-6 14 0 20 5 5 14 5 20 0l48-47 102 99c6 5 15 5 20 0 6-6 6-15 0-20l-106-104c-6-3-11-5-16-5z"/>
<glyph glyph-name="lineicons-3" unicode="&#57347;" d="M276 256l222 222c5 6 5 15 0 20-6 6-15 6-20 0l-222-222-222 222c-6 5-15 5-20 0-6-6-6-15 0-20l222-222-222-222c-5-6-5-15 0-20 3-3 7-4 10-4 3 0 7 1 10 4l222 222 222-222c2-3 6-4 9-4 3 0 7 1 10 4 5 5 5 14 0 20z"/>
<glyph glyph-name="lineicons-4" unicode="&#57348;" d="M341 270c0 0-1 0 0 0l-71 0 0 71c0 8-6 13-14 13-8 0-14-6-14-14l0-70-70 0c-8 0-14-7-14-15 0-8 7-13 15-13l70 0 0-71c0-8 7-13 15-13 8 0 13 6 13 14l0 70 71 0c8 0 13 7 13 15-1 7-7 13-14 13z m-85 232c-136 0-246-110-246-246 0-136 110-246 246-246 136 0 246 110 246 246 0 136-110 246-246 246z m0-464c-120 0-218 98-218 218 0 120 98 218 218 218 120 0 218-98 218-218 0-120-98-218-218-218z"/>
<glyph glyph-name="lineicons-5" unicode="&#57349;" d="M341 270c0 0-1 0 0 0l-169 0c-8 0-14-6-14-14 0-8 7-14 15-14l169 0c8 0 13 7 13 15-1 7-7 13-14 13z m-85 232c-136 0-246-110-246-246 0-136 110-246 246-246 136 0 246 110 246 246 0 136-110 246-246 246z m0-464c-120 0-218 98-218 218 0 120 98 218 218 218 120 0 218-98 218-218 0-120-98-218-218-218z"/>
<glyph glyph-name="lineicons-6" unicode="&#57350;" d="M256 138c-10 0-19 3-27 10l-215 202c-5 5-5 14 0 20 5 5 14 5 20 0l214-201c4-4 11-4 16 0l214 201c6 6 15 5 20 0 6-6 5-15 0-20l-215-201c-8-7-17-11-27-11z"/>
<glyph glyph-name="lineicons-7" unicode="&#57351;" d="M360 10c-4 0-7 1-10 4l-201 215c-14 15-14 39 0 53l201 216c5 5 14 5 20 0 5-5 5-14 0-20l-201-214c-4-4-4-11 0-16l201-214c6-6 5-15 0-20-3-3-7-4-10-4z"/>
<glyph glyph-name="lineicons-8" unicode="&#57352;" d="M152 10c-3 0-7 1-10 4-5 5-5 14 0 20l201 214c4 4 4 11 0 16l-201 214c-6 6-5 15 0 20 6 6 15 5 20 0l202-215c14-15 14-39 0-53l-202-216c-3-3-6-4-10-4z"/>
<glyph glyph-name="lineicons-9" unicode="&#57353;" d="M488 138c-3 0-7 1-10 4l-214 201c-4 4-11 4-16 0l-214-201c-6-6-15-5-20 0-6 6-5 15 0 20l215 202c15 14 39 14 53 0l215-202c5-5 5-14 1-20-3-3-6-4-10-4z"/>
<glyph glyph-name="lineicons-10" unicode="&#57354;" d="M443 315c0 103-84 187-187 187-103 0-187-84-187-187 0-74 43-138 105-168l0-97c0-22 18-39 39-39l89 0c21 0 38 18 38 39l0 99c62 31 103 93 103 166z m-130-181l0-85c0-6-5-11-11-11l-88 0c-6 0-11 5-11 11l0 85 5 0c15-4 31-6 48-6 17 0 33 2 48 6z m-43 23l0 101 48 37c7 5 8 14 3 20-5 7-14 7-20 3l-32-24 0 48c0 8-7 14-15 14-8 0-14-6-14-14l0-50-38 26c-6 5-15 4-19-3-5-6-3-15 3-19l55-38 0-100c-80 6-144 74-144 157 0 88 71 159 159 159 88 0 159-71 159-159 0-83-64-151-145-158z"/>
<glyph glyph-name="lineicons-11" unicode="&#57355;" d="M465 78l-17 27c-4 5-6 11-6 17l0 172c0 48-20 92-56 125-32 28-72 45-116 48l0 21c0 8-6 14-14 14-8 0-14-6-14-14l0-20c-4 0-7-1-10-1-93-10-164-86-164-175l0-170c-1-7-2-12-5-16l-16-28c-4-7-4-15 0-21 4-7 11-11 19-11l176 0 0-22c0-8 6-14 14-14 8 0 14 6 14 14l0 22 176 0c8 0 15 4 19 11 4 7 4 15 0 21z m-387-4l10 17c4 8 7 17 8 28l0 172c0 75 60 139 139 147 49 6 96-9 131-40 32-28 48-65 48-104l0-173c0-11 4-23 10-33l10-15-356 0z"/>
<glyph glyph-name="lineicons-12" unicode="&#57356;" d="M256 502c-136 0-246-110-246-246 0-136 110-246 246-246 136 0 246 110 246 246 0 136-110 246-246 246z m0-464c-120 0-218 98-218 218 0 120 98 218 218 218 120 0 218-98 218-218 0-120-98-218-218-218z m74 292c-6 5-15 5-20 0l-54-54-54 54c-5 5-14 5-20 0-5-6-5-15 0-20l54-54-54-54c-5-5-5-14 0-20 3-2 7-4 10-4 3 0 7 2 10 4l53 54 54-54c2-2 6-4 9-4 4 0 8 2 10 4 6 6 6 15 0 20l-52 54 54 54c4 5 4 14 0 20z"/>
<glyph glyph-name="lineicons-13" unicode="&#57357;" d="M256 37c-10 0-20 3-27 10-19 16-37 31-53 45-47 40-88 74-117 109-33 40-49 78-49 121 0 41 14 80 40 108 27 28 64 44 104 44 29 0 57-9 81-28 7-5 15-12 21-19 6 7 14 14 21 19 24 19 51 28 81 28 40 0 76-16 104-44 26-28 40-67 40-108 0-43-16-81-49-121-29-35-70-69-117-109-16-14-34-29-53-45-7-6-17-10-27-10z m-102 410c-32 0-62-13-83-36-21-23-33-54-33-89 0-35 14-68 43-103 27-33 67-66 113-105 16-14 35-29 53-46 5-4 13-4 18 0 19 16 37 32 53 46 46 39 86 72 113 105 29 35 43 68 43 103 0 35-12 66-33 89-22 23-51 36-83 36-24 0-45-7-64-22-8-6-14-13-21-21-4-5-11-8-17-8-6 0-13 3-17 8-6 8-13 15-21 21-19 14-40 22-64 22z"/>
<glyph glyph-name="lineicons-14" unicode="&#57358;" d="M495 410c-27 28-54 56-83 84-5 4-10 8-17 8-6 0-12-3-17-7l-312-310c-4-4-7-10-9-15l-46-140c-1-4-1-10 2-14 1-2 5-6 13-6l3 0 141 47c5 1 10 5 15 9l310 311c5 5 7 10 7 17 0 5-3 12-7 16z m-330-324c-1 0-3-2-4-2l-116-39 38 115c1 2 2 3 3 4l231 230 78-78z m250 251l-78 78 57 57c27-26 53-53 78-78z"/>
<glyph glyph-name="lineicons-15" unicode="&#57359;" d="M488 270l-218 0 0 218c0 8-6 14-14 14-8 0-14-6-14-14l0-218-218 0c-8 0-14-7-14-15 0-8 6-13 14-13l218 0 0-218c0-8 7-14 15-14 8 0 14 6 14 14l0 218 217 0c8 0 14 6 14 14 0 8-6 14-14 14z"/>
<glyph glyph-name="lineicons-16" unicode="&#57360;" d="M488 242l-464 0c-8 0-14 6-14 14 0 8 6 14 14 14l464 0c8 0 14-6 14-14 0-8-6-14-14-14z"/>
<glyph glyph-name="lineicons-17" unicode="&#57361;" d="M256 221c66 0 119 53 119 119 0 66-53 120-119 120-66 0-119-54-119-119 0-66 53-120 119-120z m0 211c50 0 91-41 91-91 0-51-41-91-91-91-50 0-91 40-91 91 0 49 41 91 91 91z m241-355c-67 57-152 88-241 88-89 0-174-31-241-88-6-5-7-14-1-20 4-6 13-7 20-2 61 52 140 81 223 81 82 0 161-29 223-81 2-2 6-3 9-3 4 0 8 2 10 5 5 6 4 15-2 20z"/>
<glyph glyph-name="lineicons-18" unicode="&#57362;" d="M488 299c-20 45-91 43-134 43l-5 0c4 22 15 95 4 117-9 17-25 27-45 29-20 2-38-7-49-25-47-73-93-123-110-141-2-2-4-2-6-2l-98 0c-19 0-35-16-35-35l0-190c0-19 16-35 35-35l75 0 6-4c21-14 67-25 132-30 10-1 18-1 28-1 56 0 108 13 145 37 68 44 88 168 57 237z m-450-204l0 190c0 4 4 7 8 7l49 0 0-204-49 0c-4 0-8 3-8 7z m378-10c-32-21-79-33-129-33-9 0-17 0-25 1-84 8-112 21-120 25l-8 7c-3 1-6 2-8 2l-3 0 0 205 21 0c10 0 18 4 26 10 17 19 64 70 113 146 5 9 13 13 23 12 10-1 18-6 22-14 3-8 3-45-7-104l-3-12c-1-4 0-9 2-12 2-4 6-6 11-6l23 0c33 1 95 2 108-26 26-56 8-165-46-201z"/>
<glyph glyph-name="lineicons-19" unicode="&#57363;" d="M431 450c-36 24-89 38-144 38-9 0-18 0-28-1-65-5-111-17-133-31l-5-4-75 0c-20 0-36-16-36-35l0-190c0-19 16-35 36-35l98 0c2 0 3 0 6-2 17-18 63-68 110-142 10-16 26-25 45-25l4 0c20 2 37 12 45 30 12 22 0 94-4 117l5 0c43 0 114-3 134 43 30 69 10 193-58 237z m-393-223l0 190c0 4 4 7 8 7l48 0 0-204-49 0c-4 0-7 3-7 7z m424-2c-12-28-74-27-108-26l-23 0c-4 0-8-1-11-5-3-4-4-8-2-12l2-12c10-59 10-97 7-104-4-8-12-14-22-15-9 0-17 4-23 13-48 76-96 127-113 146-7 7-16 10-26 10l-21 0 0 204 3 0c3 0 5 1 8 2l8 7c8 5 36 18 120 26 9 1 16 1 25 1 51 0 98-12 130-33 54-36 72-145 46-202z"/>
<glyph glyph-name="lineicons-20" unicode="&#57364;" d="M256 502c-136 0-246-110-246-246 0-136 110-246 246-246 136 0 246 110 246 246 0 136-110 246-246 246z m0-464c-120 0-218 98-218 218 0 120 98 218 218 218 120 0 218-98 218-218 0-120-98-218-218-218z m95 123c-25-24-59-37-95-37-35 0-69 13-95 37-6 5-15 5-20-1-6-6-5-14 1-20 31-29 71-45 114-45 42 0 83 16 114 45 6 6 7 14 1 20-5 6-14 6-20 1z m-189 137c17 0 32 15 32 32 0 18-15 32-32 32-18 0-32-14-32-32 0-17 14-32 32-32z m189 64c-17 0-32-15-32-32 0-18 15-32 32-32 18 0 32 14 32 32 0 17-14 32-32 32z"/>
<glyph glyph-name="lineicons-21" unicode="&#57365;" d="M256 502c-136 0-246-110-246-246 0-136 110-246 246-246 136 0 246 110 246 246 0 136-110 246-246 246z m0-464c-120 0-218 98-218 218 0 120 98 218 218 218 120 0 218-98 218-218 0-120-98-218-218-218z m106 127l-212 0c-8 0-14-7-14-15 0-8 6-14 14-14l212 0c8 0 14 6 14 14 0 8-7 15-14 15z m-201 133c17 0 32 15 32 32 0 18-15 32-32 32-18 0-32-14-32-32 0-17 14-32 32-32z m190 64c-17 0-32-15-32-32 0-18 15-32 32-32 18 0 32 14 32 32 0 18-14 32-32 32z"/>
<glyph glyph-name="lineicons-22" unicode="&#57366;" d="M256 502c-136 0-246-110-246-246 0-136 110-246 246-246 136 0 246 110 246 246 0 136-110 246-246 246z m0-464c-120 0-218 98-218 218 0 120 98 218 218 218 120 0 218-98 218-218 0-120-98-218-218-218z m0 168c-42 0-83-16-114-44-6-6-7-15-1-20 5-6 14-7 20-1 25 24 59 37 95 37 35 0 69-13 95-37 3-3 7-4 10-4 4 0 7 1 10 5 6 5 5 14-1 20-31 28-72 44-114 44z m-95 92c17 0 32 15 32 32 0 18-15 32-32 32-18 0-32-14-32-32 0-17 14-32 32-32z m190 64c-17 0-32-15-32-32 0-18 15-32 32-32 18 0 32 14 32 32 0 17-15 32-32 32z"/>
<glyph glyph-name="lineicons-23" unicode="&#57367;" d="M122 397c-52 1-99-33-110-79-6-28-1-56 16-78 18-24 45-39 75-43l28-69c3-7 11-12 19-12 8 0 15 5 18 12 5 12 10 25 16 37 14 30 27 61 38 93 11 34 6 70-13 97-19 27-50 41-87 42z m73-131c-10-30-24-61-37-91-2-6-5-12-8-18l-27 65-9 1c-25 2-49 15-63 33-12 16-16 36-11 55 8 33 42 57 82 57l0 0c28 0 50-11 64-30 14-20 17-47 9-72z m288 88c-19 28-49 43-86 43l-2 0c-51 0-97-34-109-79-6-28 0-56 16-79 18-24 45-39 76-43l28-69c3-7 10-12 18-12 8 0 15 5 18 12 5 12 11 25 16 37 14 30 28 62 38 94 11 32 6 69-13 96z m-13-88c-11-30-24-61-37-91-3-6-6-12-8-18l-27 65-9 1c-26 2-50 15-63 33-12 16-16 36-12 56 8 33 43 57 82 57l1 0c27 0 49-11 64-31 13-20 17-47 9-72z"/>
<glyph glyph-name="lineicons-24" unicode="&#57368;" d="M172 221c54 0 98 44 98 98 0 55-44 99-98 99-54 0-98-44-98-99 0-54 44-98 98-98z m0 169c38 0 70-32 70-71 0-39-31-70-70-70-39 0-70 31-70 70 0 39 31 71 70 71z m0-204c-58 0-114-24-158-68-5-5-5-14 0-20 3-2 7-4 10-4 4 0 7 2 10 4 37 39 86 60 137 60 51 0 99-21 138-60 5-5 14-5 20 0 5 6 5 15 0 20-43 44-99 68-157 68z m210 35c32 0 56 25 56 56 0 30-25 56-56 56-30 0-56-26-56-56 0-31 25-56 56-56z m0 85c16 0 28-13 28-28 0-16-12-28-28-28-15 0-28 12-28 28 0 15 13 28 28 28z m116-166c-43 40-102 55-161 40-7-2-12-10-11-17 2-7 10-12 17-10 50 13 99 0 135-34 2-2 6-4 9-4 4 0 7 2 11 5 5 6 5 14 0 20z"/>
<glyph glyph-name="lineicons-25" unicode="&#57369;" d="M456 425l-400 0c-26 0-46-21-46-47l0-245c0-26 20-47 46-47l400 0c26 0 46 21 46 47l0 245c0 26-20 47-46 47z m0-28c4 0 7-1 10-3l-199-121c-7-4-15-4-22 0l-199 121c3 1 6 3 10 3z m0-282l-400 0c-10 0-18 8-18 19l0 232 192-117c8-5 16-7 25-7 9 0 18 2 26 7l192 117 0-232c1-11-7-19-17-19z"/>
<glyph glyph-name="lineicons-26" unicode="&#57370;" d="M464 502l-205 0c-21 0-37-17-37-39l0-46-174 0c-21 0-38-17-38-39l0-330c0-21 16-38 38-38l416 0c21 0 38 16 38 38l0 416c0 21-17 38-38 38z m-243-464l-173 0c-6 0-10 4-10 10l0 332c0 6 4 10 10 10l173 0z m253 10c0-6-4-10-10-10l-215 0 0 426c0 6 5 10 9 10l206 0c6 0 10-4 10-10z m-400 221l34 0c2 0 4 1 4 4l0 34c0 3-2 4-4 4l-34 0c-3 0-4-1-4-4l0-34c0-3 1-4 4-4z m80 0l35 0c2 0 4 1 4 4l0 34c0 3-2 4-4 4l-35 0c-2 0-4-1-4-4l0-34c0-3 2-4 4-4z m-80-116l34 0c2 0 4 1 4 4l0 34c0 3-2 4-4 4l-34 0c-3 0-4-1-4-4l0-34c0-2 1-4 4-4z m80 0l35 0c2 0 4 1 4 4l0 34c0 3-2 4-4 4l-35 0c-2 0-4-1-4-4l0-34c0-2 2-4 4-4z m182 262l-34 0c-3 0-4-1-4-4l0-34c0-3 1-4 4-4l34 0c2 0 4 1 4 4l0 34c0 2-2 4-4 4z m85 0l-35 0c-2 0-4-1-4-4l0-34c0-3 2-4 4-4l35 0c2 0 4 1 4 4l0 34c0 2-2 4-4 4z m-85-114l-34 0c-3 0-4-2-4-4l0-35c0-2 1-4 4-4l34 0c2 0 4 2 4 4l0 35c0 2-2 4-4 4z m85 0l-35 0c-2 0-4-2-4-4l0-35c0-2 2-4 4-4l35 0c2 0 4 2 4 4l0 35c0 2-2 4-4 4z m-85-115l-34 0c-3 0-4-1-4-4l0-34c0-2 1-4 4-4l34 0c2 0 4 2 4 4l0 34c0 3-2 4-4 4z m85 0l-35 0c-2 0-4-1-4-4l0-34c0-2 2-4 4-4l35 0c2 0 4 2 4 4l0 34c0 3-2 4-4 4z"/>
<glyph glyph-name="lineicons-27" unicode="&#57371;" d="M142 210l-26 0c-5 0-8-4-8-8l0-26c0-5 3-8 8-8l26 0c5 0 8 3 8 8l0 26c0 4-3 8-8 8z m85 0l-26 0c-5 0-8-4-8-8l0-26c0-5 3-8 8-8l26 0c5 0 8 3 8 8l0 26c0 4-4 8-8 8z m84 0l-26 0c-5 0-8-4-8-8l0-26c0-5 3-8 8-8l26 0c5 0 8 3 8 8l0 26c0 4-3 8-8 8z m85 0l-26 0c-5 0-8-4-8-8l0-26c0-5 3-8 8-8l26 0c5 0 8 3 8 8l0 26c0 4-4 8-8 8z m-254-84l-26 0c-5 0-8-3-8-8l0-25c0-5 3-8 8-8l26 0c5 0 8 3 8 8l0 25c0 5-3 8-8 8z m85 0l-26 0c-5 0-8-3-8-8l0-25c0-5 3-8 8-8l26 0c5 0 8 3 8 8l0 25c0 5-4 8-8 8z m84 0l-26 0c-5 0-8-3-8-8l0-25c0-5 3-8 8-8l26 0c5 0 8 3 8 8l0 25c0 5-3 8-8 8z m85 0l-26 0c-5 0-8-3-8-8l0-25c0-5 3-8 8-8l26 0c5 0 8 3 8 8l0 25c0 5-4 8-8 8z m60 261l-188 0 0 27c18 4 33 22 33 42 0 24-20 44-45 44-25 0-45-20-45-44 0-20 14-37 33-42l0-27-188 0c-24 0-44-20-44-44l0-287c0-24 20-44 44-44l400 0c24 0 44 20 44 44l0 287c0 24-20 44-44 44z m-221 69c0 11 9 20 21 20 11 0 21-9 21-20 0-11-9-20-21-20-11 0-21 10-21 20z m-179-93l400 0c11 0 20-9 20-20l0-59-440 0 0 59c0 11 9 20 20 20z m400-327l-400 0c-11 0-20 9-20 20l0 204 440 0 0-204c0-11-9-20-20-20z"/>
<glyph glyph-name="lineicons-28" unicode="&#57372;" d="M454 432l-396 0c-27 0-48-22-48-48l0-256c0-18 8-33 24-42 7-4 16-6 24-6 8 0 16 2 24 6l70 41c3 2 6 3 10 3l292 0c26 0 48 21 48 48l0 206c0 26-21 48-48 48z m20-254c0-12-8-20-20-20l-292 0c-8 0-16-3-24-7l-70-41c-6-3-14-3-20 0-6 4-10 10-10 17l0 257c0 11 9 20 20 20l397 0c11 0 20-9 20-20l0-206z m-116 158l-215 0c-8 0-14-6-14-14 0-8 6-15 14-15l215 0c8 0 15 7 15 15 0 8-7 14-15 14z m-34-90l-181 0c-8 0-14-7-14-15 0-8 6-14 14-14l182 0c8 0 14 6 14 14 0 8-7 15-15 15z"/>
<glyph glyph-name="lineicons-29" unicode="&#57373;" d="M497 56l-140 114c25 33 40 74 40 117 0 52-20 100-57 137-75 75-198 75-274 0-36-36-56-85-56-136 0-52 20-100 57-137 38-37 87-57 137-57 49 0 97 19 134 55l142-115c2-2 6-3 9-3 4 0 8 2 11 5 4 6 3 15-3 20z m-411 114c-31 32-48 73-48 118 0 45 17 86 49 117 32 32 75 48 117 48 42 0 85-16 117-48 31-31 49-73 49-117 0-44-19-86-50-118-64-64-169-64-234 0z"/>
<glyph glyph-name="lineicons-30" unicode="&#57374;" d="M489 176l-178 242c-13 17-33 28-55 28-22 0-42-11-55-28l-178-242c-15-21-17-49-5-72 12-23 35-38 61-38l355 0c26 0 49 15 61 38 12 23 9 51-6 72z m-19-59c-8-14-21-23-36-23l-355 0c-16 0-29 8-36 23-7 13-5 29 3 42l177 242c8 10 20 17 33 17 13 0 25-7 33-17l177-242c9-13 11-28 4-42z m-214 91c8 0 14 6 14 14l0 90c0 8-6 14-14 14-8 0-14-6-14-14l0-90c0-8 6-14 14-14z m0-26c-13 0-23-11-23-24 0-12 10-23 23-23 13 0 23 11 23 23 0 13-10 24-23 24z"/>
<glyph glyph-name="calendar" unicode="&#57375;" d="M469 464l-69 0 0 32c0 9-7 16-16 16-9 0-16-7-16-16l0-32-96 0 0 32c0 9-7 16-16 16-9 0-16-7-16-16l0-32-96 0 0 32c0 9-7 16-16 16-9 0-16-7-16-16l0-32-69 0c-24 0-43-19-43-43l0-378c0-24 19-43 43-43l426 0c24 0 43 19 43 43l0 378c0 24-19 43-43 43z m11-421c0-6-5-11-11-11l-426 0c-6 0-11 5-11 11l0 378c0 6 5 11 11 11l69 0 0-32c0-9 7-16 16-16 9 0 16 7 16 16l0 32 96 0 0-32c0-9 7-16 16-16 9 0 16 7 16 16l0 32 96 0 0-32c0-9 7-16 16-16 9 0 16 7 16 16l0 32 69 0c6 0 11-5 11-11z m-368 277l64 0 0-48-64 0z m0-80l64 0 0-48-64 0z m0-80l64 0 0-48-64 0z m112 0l64 0 0-48-64 0z m0 80l64 0 0-48-64 0z m0 80l64 0 0-48-64 0z m112-160l64 0 0-48-64 0z m0 80l64 0 0-48-64 0z m0 80l64 0 0-48-64 0z"/>
<glyph glyph-name="location" unicode="&#57376;" d="M256 228c53 0 96 43 96 96 0 53-43 96-96 96-53 0-96-43-96-96 0-53 43-96 96-96z m0 176c44 0 80-36 80-80 0-44-36-80-80-80-44 0-80 36-80 80 0 44 36 80 80 80z m0 108c-106 0-192-85-192-192 0-112 96-227 166-307 0 0 12-13 25-13 0 0 2 0 2 0 13 0 25 13 25 13 70 80 166 195 166 307 0 107-86 192-192 192z m2-478c0 0-1-1-2-2 0 1-2 2-2 2-59 68-158 182-158 286 0 88 72 160 160 160 88 0 160-72 160-160 0-104-99-218-158-286z"/>
</font>
</defs>
</svg>
